<?xml version="1.0" encoding="UTF-8"?>
<svg version="1.1" xmlns="http://www.w3.org/2000/svg" width="180" height="180">
<path d="M0 0 C4.81143977 0.54322707 8.20135149 2.28865842 11.875 5.4375 C11.875 6.0975 11.875 6.7575 11.875 7.4375 C12.43703125 7.6746875 12.9990625 7.911875 13.578125 8.15625 C16.39394042 9.72697697 18.35455416 11.65221464 20.625 13.9375 C21.42421875 14.7315625 22.2234375 15.525625 23.046875 16.34375 C24.875 18.4375 24.875 18.4375 24.875 20.4375 C25.535 20.4375 26.195 20.4375 26.875 20.4375 C37.43373516 33.2306563 47.8449753 51.09857319 47.1640625 68.15234375 C45.64371562 80.17130218 41.28749402 87.9212123 31.875 95.4375 C34.71467231 95.4375 37.11235711 95.03482819 39.875 94.4375 C39.875 93.7775 39.875 93.1175 39.875 92.4375 C41.525 92.1075 43.175 91.7775 44.875 91.4375 C45.00455078 90.4475 45.00455078 90.4475 45.13671875 89.4375 C46.11493103 85.46254215 47.83896427 82.07418371 49.6875 78.4375 C50.03103516 77.73882812 50.37457031 77.04015625 50.72851562 76.3203125 C53.44274679 70.92240436 56.37915073 66.20157391 61.375 62.625 C62.22578125 61.99658203 62.22578125 61.99658203 63.09375 61.35546875 C64.875 60.4375 64.875 60.4375 68.875 60.4375 C71.20790231 68.67914669 70.3375318 75.64489469 66.5 83.2109375 C65.22608199 85.7403997 64.06023536 88.25496179 62.9375 90.8515625 C62.5971875 91.63781006 62.256875 92.42405762 61.90625 93.23413086 C61.23693311 94.78588756 60.57011633 96.33872592 59.90625 97.89282227 C55.10288735 108.86380909 55.10288735 108.86380909 51.875 112.4375 C48.84243363 113.31116971 47.09826711 112.95738179 43.875 112.4375 C42.39 111.4475 42.39 111.4475 40.875 110.4375 C39.885 111.0975 38.895 111.7575 37.875 112.4375 C34.51953125 112.6328125 34.51953125 112.6328125 30.6875 112.5625 C29.41519531 112.54445313 28.14289063 112.52640625 26.83203125 112.5078125 C25.85621094 112.48460938 24.88039063 112.46140625 23.875 112.4375 C24.0915625 113.31792969 24.308125 114.19835937 24.53125 115.10546875 C24.8096875 116.26691406 25.088125 117.42835938 25.375 118.625 C25.6534375 119.77355469 25.931875 120.92210937 26.21875 122.10546875 C26.78995385 125.00568829 27.00783779 127.49846385 26.875 130.4375 C27.926875 130.375625 28.97875 130.31375 30.0625 130.25 C34.03316493 130.4452786 35.71696969 131.14075068 38.875 133.4375 C38.545 134.0975 38.215 134.7575 37.875 135.4375 C26.30694468 138.89032068 14.33870903 138.90644397 2.37573242 138.82861328 C-0.55532489 138.81253935 -3.48499997 138.82854572 -6.41601562 138.84765625 C-17.96673101 138.85859201 -28.83944334 137.918194 -40.125 135.4375 C-40.125 134.4475 -40.125 133.4575 -40.125 132.4375 C-35.62146738 130.68002386 -31.94860189 130.24455592 -27.125 130.4375 C-27.186875 129.32375 -27.24875 128.21 -27.3125 127.0625 C-27.34038129 121.87658031 -25.7989295 117.29986666 -24.125 112.4375 C-24.95 112.788125 -25.775 113.13875 -26.625 113.5 C-33.28619418 115.28424844 -39.22484831 113.67679897 -45.125 110.4375 C-47.28644754 108.07341676 -48.11409481 106.59126961 -48.14453125 103.37109375 C-47.9375 101.1875 -47.9375 101.1875 -47.125 97.4375 C-44.05966836 95.90483418 -40.85745728 96.33473529 -37.5 96.375 C-36.44039062 96.38176758 -36.44039062 96.38176758 -35.359375 96.38867188 C-33.61454725 96.40046125 -31.869763 96.41839676 -30.125 96.4375 C-31.06085937 95.82648438 -31.99671875 95.21546875 -32.9609375 94.5859375 C-40.53414453 89.44363643 -45.00199778 83.33214724 -47.125 74.4375 C-47.3330824 71.76215489 -47.45967414 69.23143137 -47.4375 66.5625 C-47.43258545 65.85923584 -47.4276709 65.15597168 -47.42260742 64.43139648 C-47.21151551 55.05350289 -43.86277176 48.35875475 -39.125 40.4375 C-38.465 40.4375 -37.805 40.4375 -37.125 40.4375 C-36.939375 39.73625 -36.75375 39.035 -36.5625 38.3125 C-34.85062452 34.88874904 -32.81470969 33.23163753 -29.87109375 30.86328125 C-27.95916768 29.35725396 -27.95916768 29.35725396 -25.8125 27.0625 C-24.125 25.4375 -24.125 25.4375 -22.125 25.4375 C-21.795 24.4475 -21.465 23.4575 -21.125 22.4375 C-19.578125 21.4165625 -19.578125 21.4165625 -18 20.375 C-12.50790191 16.64943243 -8.50110839 10.88027298 -6.05078125 4.75 C-4.64285703 1.23315976 -3.78560348 0.52998449 0 0 Z M-6.125 125.4375 C-6.455 126.7575 -6.785 128.0775 -7.125 129.4375 C-2.505 129.4375 2.115 129.4375 6.875 129.4375 C6.215 128.1175 5.555 126.7975 4.875 125.4375 C1.245 125.4375 -2.385 125.4375 -6.125 125.4375 Z " fill="#F9A836" transform="translate(86.125,13.5625)"/>
<path d="M0 0 C4.81143977 0.54322707 8.20135149 2.28865842 11.875 5.4375 C11.875 6.0975 11.875 6.7575 11.875 7.4375 C12.43703125 7.6746875 12.9990625 7.911875 13.578125 8.15625 C16.39394042 9.72697697 18.35455416 11.65221464 20.625 13.9375 C21.42421875 14.7315625 22.2234375 15.525625 23.046875 16.34375 C24.875 18.4375 24.875 18.4375 24.875 20.4375 C25.535 20.4375 26.195 20.4375 26.875 20.4375 C37.43373516 33.2306563 47.8449753 51.09857319 47.1640625 68.15234375 C45.64371562 80.17130218 41.28749402 87.9212123 31.875 95.4375 C34.71467231 95.4375 37.11235711 95.03482819 39.875 94.4375 C39.875 93.7775 39.875 93.1175 39.875 92.4375 C41.525 92.1075 43.175 91.7775 44.875 91.4375 C45.00455078 90.4475 45.00455078 90.4475 45.13671875 89.4375 C46.11493103 85.46254215 47.83896427 82.07418371 49.6875 78.4375 C50.03103516 77.73882812 50.37457031 77.04015625 50.72851562 76.3203125 C53.44274679 70.92240436 56.37915073 66.20157391 61.375 62.625 C62.22578125 61.99658203 62.22578125 61.99658203 63.09375 61.35546875 C64.875 60.4375 64.875 60.4375 68.875 60.4375 C71.20790231 68.67914669 70.3375318 75.64489469 66.5 83.2109375 C65.22608199 85.7403997 64.06023536 88.25496179 62.9375 90.8515625 C62.5971875 91.63781006 62.256875 92.42405762 61.90625 93.23413086 C61.23693311 94.78588756 60.57011633 96.33872592 59.90625 97.89282227 C55.10288735 108.86380909 55.10288735 108.86380909 51.875 112.4375 C48.84243363 113.31116971 47.09826711 112.95738179 43.875 112.4375 C42.39 111.4475 42.39 111.4475 40.875 110.4375 C39.885 111.0975 38.895 111.7575 37.875 112.4375 C34.51953125 112.6328125 34.51953125 112.6328125 30.6875 112.5625 C29.41519531 112.54445313 28.14289063 112.52640625 26.83203125 112.5078125 C25.85621094 112.48460938 24.88039063 112.46140625 23.875 112.4375 C24.0915625 113.31792969 24.308125 114.19835937 24.53125 115.10546875 C24.8096875 116.26691406 25.088125 117.42835938 25.375 118.625 C25.6534375 119.77355469 25.931875 120.92210937 26.21875 122.10546875 C26.78995385 125.00568829 27.00783779 127.49846385 26.875 130.4375 C27.926875 130.375625 28.97875 130.31375 30.0625 130.25 C34.03316493 130.4452786 35.71696969 131.14075068 38.875 133.4375 C38.545 134.0975 38.215 134.7575 37.875 135.4375 C26.30694468 138.89032068 14.33870903 138.90644397 2.37573242 138.82861328 C-0.55532489 138.81253935 -3.48499997 138.82854572 -6.41601562 138.84765625 C-17.96673101 138.85859201 -28.83944334 137.918194 -40.125 135.4375 C-40.125 134.4475 -40.125 133.4575 -40.125 132.4375 C-35.62146738 130.68002386 -31.94860189 130.24455592 -27.125 130.4375 C-27.186875 129.32375 -27.24875 128.21 -27.3125 127.0625 C-27.34038129 121.87658031 -25.7989295 117.29986666 -24.125 112.4375 C-24.95 112.788125 -25.775 113.13875 -26.625 113.5 C-33.28619418 115.28424844 -39.22484831 113.67679897 -45.125 110.4375 C-47.28644754 108.07341676 -48.11409481 106.59126961 -48.14453125 103.37109375 C-47.9375 101.1875 -47.9375 101.1875 -47.125 97.4375 C-44.05966836 95.90483418 -40.85745728 96.33473529 -37.5 96.375 C-36.44039062 96.38176758 -36.44039062 96.38176758 -35.359375 96.38867188 C-33.61454725 96.40046125 -31.869763 96.41839676 -30.125 96.4375 C-31.06085937 95.82648438 -31.99671875 95.21546875 -32.9609375 94.5859375 C-40.53414453 89.44363643 -45.00199778 83.33214724 -47.125 74.4375 C-47.3330824 71.76215489 -47.45967414 69.23143137 -47.4375 66.5625 C-47.43258545 65.85923584 -47.4276709 65.15597168 -47.42260742 64.43139648 C-47.21151551 55.05350289 -43.86277176 48.35875475 -39.125 40.4375 C-38.465 40.4375 -37.805 40.4375 -37.125 40.4375 C-36.939375 39.73625 -36.75375 39.035 -36.5625 38.3125 C-34.85062452 34.88874904 -32.81470969 33.23163753 -29.87109375 30.86328125 C-27.95916768 29.35725396 -27.95916768 29.35725396 -25.8125 27.0625 C-24.125 25.4375 -24.125 25.4375 -22.125 25.4375 C-21.795 24.4475 -21.465 23.4575 -21.125 22.4375 C-19.578125 21.4165625 -19.578125 21.4165625 -18 20.375 C-12.50790191 16.64943243 -8.50110839 10.88027298 -6.05078125 4.75 C-4.64285703 1.23315976 -3.78560348 0.52998449 0 0 Z M-2.125 4.4375 C-2.74375 5.984375 -2.74375 5.984375 -3.375 7.5625 C-7.58574686 17.2201763 -14.96490614 24.07734265 -23.1875 30.4375 C-32.8069067 38.01371489 -39.22512807 46.73788422 -43.125 58.4375 C-43.9501916 69.71962784 -43.06137744 77.7711394 -35.875 86.75 C-31.23596723 91.72533792 -26.2338198 94.0194389 -19.6875 95.5625 C-18.511875 95.85125 -17.33625 96.14 -16.125 96.4375 C-15.63 97.4275 -15.63 97.4275 -15.125 98.4375 C-17.04557292 98.37239583 -18.96614583 98.30729167 -20.88671875 98.2421875 C-23.19162568 98.32108885 -23.19162568 98.32108885 -25.375 99.4375 C-29.06617245 100.77974453 -32.56854952 100.65239519 -36.4375 100.5625 C-37.17806641 100.55347656 -37.91863281 100.54445313 -38.68164062 100.53515625 C-40.49623467 100.51174213 -42.31066071 100.47587615 -44.125 100.4375 C-44.37498037 104.04803495 -44.37498037 104.04803495 -42.875 107.1875 C-38.41536714 110.37295204 -32.35996657 109.90630298 -27.125 109.4375 C-24.29175616 108.65403064 -21.82279527 107.63652012 -19.125 106.4375 C-19.41375 107.4996875 -19.7025 108.561875 -20 109.65625 C-20.37551276 111.08319849 -20.7504838 112.51028962 -21.125 113.9375 C-21.31578125 114.63359375 -21.5065625 115.3296875 -21.703125 116.046875 C-22.9812662 120.97684819 -23.47959275 125.34022916 -23.125 130.4375 C-22.465 131.0975 -21.805 131.7575 -21.125 132.4375 C-16.91364804 132.359512 -14.83646757 132.14896757 -11.8125 129.125 C-10.43301707 126.92804571 -9.26035714 124.76275108 -8.125 122.4375 C-2.99984063 121.90933472 1.76851818 121.62474059 6.875 122.4375 C9.87264573 125.04684965 11.19553715 127.89791495 12.875 131.4375 C15.60747348 132.80373674 17.85698902 132.565926 20.875 132.4375 C22.5182459 130.7942541 22.08571263 128.95307187 22.125 126.6875 C22.08995272 120.01975565 20.58795007 113.85086661 18.875 107.4375 C19.865 107.7675 20.855 108.0975 21.875 108.4375 C31.5982604 109.59332875 37.99418956 108.86627632 45.8984375 102.67578125 C48.08463201 100.20011039 48.56790457 98.68474984 48.875 95.4375 C46.52966049 94.66793864 46.52966049 94.66793864 43.875 94.4375 C42.37485609 95.77039654 42.37485609 95.77039654 40.875 97.4375 C35.14926776 100.0277122 28.83164971 100.4230499 22.875 98.4375 C20.54200175 98.39795766 18.20791811 98.39348268 15.875 98.4375 C15.875 97.4475 15.875 96.4575 15.875 95.4375 C17.03 95.355 18.185 95.2725 19.375 95.1875 C27.22856507 94.14866864 32.41800071 90.67941713 37.40234375 84.59375 C42.45137467 77.20100446 43.8258502 68.45664344 42.44921875 59.7421875 C38.62975849 42.16798386 27.99559122 28.25819758 15.875 15.4375 C15.24335937 14.76460937 14.61171875 14.09171875 13.9609375 13.3984375 C7.97642864 6.99201022 7.97642864 6.99201022 0 4.1875 C-0.70125 4.27 -1.4025 4.3525 -2.125 4.4375 Z M-6.125 125.4375 C-6.455 126.7575 -6.785 128.0775 -7.125 129.4375 C-2.505 129.4375 2.115 129.4375 6.875 129.4375 C6.215 128.1175 5.555 126.7975 4.875 125.4375 C1.245 125.4375 -2.385 125.4375 -6.125 125.4375 Z " fill="#1E5553" transform="translate(86.125,13.5625)"/>
<path d="M0 0 C2.64 0 5.28 0 8 0 C8.38671875 0.83144531 8.7734375 1.66289063 9.171875 2.51953125 C9.95304687 4.14955078 9.95304687 4.14955078 10.75 5.8125 C11.26046875 6.89144531 11.7709375 7.97039062 12.296875 9.08203125 C14.63100752 13.08110693 16.65322639 14.55107546 21 16 C27.20761611 16.58266433 32.38054257 15.89607644 38.1875 13.65625 C40 13 40 13 42 13 C42.33 12.34 42.66 11.68 43 11 C43.68359375 13.24609375 43.68359375 13.24609375 44 16 C40.78314067 21.85577445 35.28037371 25.94611597 29 28 C26.30172224 28.53965555 23.75450773 28.80324945 21 29 C21 29.99 21 30.98 21 32 C22.093125 31.979375 23.18625 31.95875 24.3125 31.9375 C28 32 28 32 31 33 C37.11102938 33.61584017 41.58265113 32.87451164 47 30 C47.66 29.34 48.32 28.68 49 28 C51.625 28.375 51.625 28.375 54 29 C54 31.125 54 31.125 53 34 C50.51772057 36.27635042 47.80280316 38.14055276 45 40 C44.01 40.66 43.02 41.32 42 42 C39.45666263 42.168983 37.03846207 42.23343408 34.5 42.1875 C33.48486328 42.1865332 33.48486328 42.1865332 32.44921875 42.18554688 C29.36994397 42.15821603 26.94097526 41.98032509 24 41 C24.2165625 41.81082031 24.433125 42.62164062 24.65625 43.45703125 C26.47494321 50.68970472 27.74195144 57.5234124 27 65 C26 66 26 66 23.25 66.375 C18.91146541 65.87439986 17.73326924 64.32424637 15 61 C14.41412109 59.700625 14.41412109 59.700625 13.81640625 58.375 C12.13322283 55.64875566 12.13322283 55.64875566 8.6015625 55.23046875 C1.31710728 54.80188403 1.31710728 54.80188403 -4.9921875 57.73046875 C-6.29181111 59.82992952 -6.29181111 59.82992952 -7.140625 62.0546875 C-8 64 -8 64 -11 66 C-13.5625 66.25 -13.5625 66.25 -16 66 C-18 64 -18 64 -18.25 60.40625 C-18.13638034 55.91827328 -17.1820317 51.81281836 -16 47.5 C-15.80921875 46.77296875 -15.6184375 46.0459375 -15.421875 45.296875 C-14.95662755 43.52893469 -14.47956407 41.76411067 -14 40 C-15.11375 40.495 -16.2275 40.99 -17.375 41.5 C-23.20050281 43.68327015 -29.03018551 43.86619589 -35 42.125 C-37 41 -37 41 -39 39 C-39.125 36.375 -39.125 36.375 -39 34 C-37.90300781 34.02320313 -36.80601563 34.04640625 -35.67578125 34.0703125 C-34.221361 34.08907921 -32.76693336 34.10727844 -31.3125 34.125 C-30.59126953 34.14175781 -29.87003906 34.15851563 -29.12695312 34.17578125 C-24.88844395 34.2144891 -21.8479297 33.71019098 -18 32 C-15.76171875 31.8046875 -15.76171875 31.8046875 -13.6875 31.875 C-12.470625 31.91625 -11.25375 31.9575 -10 32 C-10.33 31.34 -10.66 30.68 -11 30 C-12.98434125 29.40351647 -14.98872283 28.87316356 -17 28.375 C-24.98627682 26.04676748 -30.39431468 21.90852798 -35 15 C-35.125 12.3125 -35.125 12.3125 -35 10 C-31.32653548 10.32412922 -30.13669519 10.85988743 -27.5 13.5625 C-23.58062354 17.10225099 -19.04641093 16.51558425 -14.0234375 16.46875 C-10.76263023 15.96319848 -9.4661774 15.09792467 -7 13 C-6.34 13 -5.68 13 -5 13 C-3.25150329 8.6960081 -1.6229639 4.35249409 0 0 Z " fill="#F7A836" transform="translate(81,80)"/>
<path d="M0 0 C4.86535506 2.34257836 7.92164086 5.65408122 11 10 C11 11.32 11 12.64 11 14 C11.66 13.67 12.32 13.34 13 13 C15.6723621 12.86584528 18.32250488 12.95681459 21 13 C21.33 11.96875 21.66 10.9375 22 9.875 C24.12124727 5.07531147 27.23351323 2.17351797 32 0 C37.08235015 -1.01647003 41.69050235 -1.08638769 46.44140625 1.1484375 C50.61537871 4.05407579 53.48036563 7.06118829 55 12 C55.95938208 18.47582903 55.18617791 23.02409818 51.3671875 28.375 C48.35728802 31.95248053 45.45927184 33.77989305 40.73046875 34.203125 C35.38639184 34.30163333 31.54543322 34.13851342 27 31 C23.15433633 27.15433633 21.71388162 23.05595079 20 18 C17.36 17.67 14.72 17.34 12 17 C11.9175 17.845625 11.835 18.69125 11.75 19.5625 C10.56940232 24.97357272 8.40963612 28.59036388 4.5625 32.4375 C-0.92832513 34.84575664 -6.10887294 34.97574085 -12 34 C-16.76412069 31.55706929 -19.61130573 27.72199854 -22 23 C-22.8246573 17.47999662 -22.74825056 12.5519271 -20.3125 7.5 C-13.91378593 0.58247128 -9.27487565 -0.93274245 0 0 Z " fill="#1A5551" transform="translate(69,63)"/>
<path d="M0 0 C-0.99 0.66 -1.98 1.32 -3 2 C-2.34 2.66 -1.68 3.32 -1 4 C-2.65 4 -4.3 4 -6 4 C-5.03136508 8.34620821 -5.03136508 8.34620821 -2 11.375 C4.22376107 12.67161689 10.19837815 12.81290756 16 10 C16.99 10 17.98 10 19 10 C18.69075786 12.10464793 18.3774944 14.2087053 18.0625 16.3125 C17.80146484 18.07013672 17.80146484 18.07013672 17.53515625 19.86328125 C17 23 17 23 16 26 C15.82187376 28.6928496 15.91272302 31.29441368 16 34 C17.14041799 35.36670309 17.14041799 35.36670309 20.1875 35.125 C24.04289407 34.45035387 24.04289407 34.45035387 25.26953125 31.92578125 C25.67558594 31.10464844 26.08164063 30.28351563 26.5 29.4375 C28.57288101 25.92824764 29.47982074 25.13526983 33.5 24.08984375 C37.49896899 23.72904942 41.09316668 23.98968683 45 25 C47.95558451 27.64609922 49.32207403 30.46365402 51 34 C53.70879335 35.35439668 56.00933268 35.06501451 59 35 C59.99 32.525 59.99 32.525 61 30 C64 31 64 31 65 33 C67.53574127 33.60374792 70.07455172 33.95781126 72.65234375 34.33984375 C75 35 75 35 77 38 C75.67037928 38.48937429 74.33600575 38.96583581 73 39.4375 C72.2575 39.70433594 71.515 39.97117188 70.75 40.24609375 C63.93810463 42.11355939 56.98699098 42.16961924 49.97265625 42.203125 C48.55188026 42.21167511 48.55188026 42.21167511 47.10240173 42.22039795 C45.10302835 42.22980227 43.1036398 42.23636365 41.10424805 42.24023438 C38.1024125 42.24987186 35.10128276 42.28091123 32.09960938 42.3125 C20.39869136 42.37489522 9.42951921 41.54479766 -2 39 C-2 38.01 -2 37.02 -2 36 C2.50353262 34.24252386 6.17639811 33.80705592 11 34 C10.938125 32.88625 10.87625 31.7725 10.8125 30.625 C10.78461871 25.43908031 12.3260705 20.86236666 14 16 C13.175 16.350625 12.35 16.70125 11.5 17.0625 C4.83880582 18.84674844 -1.09984831 17.23929897 -7 14 C-9.16144754 11.63591676 -9.98909481 10.15376961 -10.01953125 6.93359375 C-9.8125 4.75 -9.8125 4.75 -9 1 C-6.04335481 -0.4783226 -3.25770263 -0.06032783 0 0 Z M32 29 C31.67 30.32 31.34 31.64 31 33 C35.62 33 40.24 33 45 33 C44.34 31.68 43.68 30.36 43 29 C39.37 29 35.74 29 32 29 Z " fill="#165456" transform="translate(48,110)"/>
<path d="M0 0 C4.81143977 0.54322707 8.20135149 2.28865842 11.875 5.4375 C11.875 6.0975 11.875 6.7575 11.875 7.4375 C12.43703125 7.6746875 12.9990625 7.911875 13.578125 8.15625 C16.39394042 9.72697697 18.35455416 11.65221464 20.625 13.9375 C21.42421875 14.7315625 22.2234375 15.525625 23.046875 16.34375 C24.875 18.4375 24.875 18.4375 24.875 20.4375 C25.535 20.4375 26.195 20.4375 26.875 20.4375 C28.39037702 22.34384429 29.76719679 24.23511351 31.125 26.25 C31.52323975 26.83370361 31.92147949 27.41740723 32.33178711 28.01879883 C41.875 42.21339023 41.875 42.21339023 41.875 46.4375 C40.885 46.4375 39.895 46.4375 38.875 46.4375 C38.38 47.4275 38.38 47.4275 37.875 48.4375 C37.5346875 47.69886719 37.194375 46.96023437 36.84375 46.19921875 C30.05248031 31.9845133 17.60749693 12.28080662 2.6875 5.43359375 C0.61653045 4.79129058 0.61653045 4.79129058 -2.125 4.4375 C-2.16625 5.2625 -2.2075 6.0875 -2.25 6.9375 C-4.80051977 17.13957907 -15.27670833 25.30797562 -23.25 31.5 C-32.48200649 38.77413514 -38.37911074 47.19983221 -42.125 58.4375 C-42.92147393 69.32699597 -42.15971092 77.44470577 -35.375 86.25 C-29.99548739 92.08791719 -22.52443592 94.17656125 -15.125 96.4375 C-15.125 97.0975 -15.125 97.7575 -15.125 98.4375 C-15.81207031 98.57027344 -16.49914062 98.70304687 -17.20703125 98.83984375 C-18.55861328 99.10474609 -18.55861328 99.10474609 -19.9375 99.375 C-21.27748047 99.63603516 -21.27748047 99.63603516 -22.64453125 99.90234375 C-25.23897171 100.41491153 -25.23897171 100.41491153 -28.125 101.4375 C-30.01970816 101.5060495 -31.9166834 101.52230372 -33.8125 101.5 C-34.80636719 101.49097656 -35.80023438 101.48195313 -36.82421875 101.47265625 C-37.58347656 101.46105469 -38.34273437 101.44945313 -39.125 101.4375 C-39.125 100.7775 -39.125 100.1175 -39.125 99.4375 C-40.445 98.7775 -41.765 98.1175 -43.125 97.4375 C-36.69 96.9425 -36.69 96.9425 -30.125 96.4375 C-31.011875 95.880625 -31.89875 95.32375 -32.8125 94.75 C-40.40995485 89.65523616 -45.00377283 83.32471037 -47.125 74.4375 C-47.3330824 71.76215489 -47.45967414 69.23143137 -47.4375 66.5625 C-47.43258545 65.85923584 -47.4276709 65.15597168 -47.42260742 64.43139648 C-47.21151551 55.05350289 -43.86277176 48.35875475 -39.125 40.4375 C-38.465 40.4375 -37.805 40.4375 -37.125 40.4375 C-36.939375 39.73625 -36.75375 39.035 -36.5625 38.3125 C-34.85062452 34.88874904 -32.81470969 33.23163753 -29.87109375 30.86328125 C-27.95916768 29.35725396 -27.95916768 29.35725396 -25.8125 27.0625 C-24.125 25.4375 -24.125 25.4375 -22.125 25.4375 C-21.795 24.4475 -21.465 23.4575 -21.125 22.4375 C-19.578125 21.4165625 -19.578125 21.4165625 -18 20.375 C-12.50790191 16.64943243 -8.50110839 10.88027298 -6.05078125 4.75 C-4.64285703 1.23315976 -3.78560348 0.52998449 0 0 Z " fill="#1C5758" transform="translate(86.125,13.5625)"/>
<path d="M0 0 C3.90149488 1.35972891 6.4968893 3.30213676 8.9375 6.6875 C10.76995398 12.40044475 11.02686078 16.94627845 8.3125 22.375 C5.40158786 25.67927865 3.33639371 27.69358771 -1.14453125 28.28125 C-5.89170962 28.47019242 -9.26865701 28.198294 -13 25 C-16.86211542 20.72035858 -17.73880072 17.08049512 -17.52734375 11.47265625 C-15.74662795 3.1230777 -8.07009398 -1.18460095 0 0 Z " fill="#F2A738" transform="translate(67,66)"/>
<path d="M0 0 C3.58168912 2.19785469 5.18758384 3.50642607 7 7.3125 C7.9869522 11.75378491 8.26057656 15.34365298 6.75 19.6875 C3.99421185 23.59570865 0.91465992 26.13453391 -3.7578125 27.328125 C-8.57985661 27.65254387 -11.57311006 26.91588715 -15.3125 23.8125 C-18.91167885 20.30647637 -19.46267054 17.95722644 -19.625 12.9375 C-19.59630694 8.94916405 -19.55583505 6.21417389 -17 3.0625 C-11.55325018 -1.6415112 -6.98967849 -2.82275478 0 0 Z " fill="#F3A838" transform="translate(113.25,67.3125)"/>
<path d="M0 0 C2.8125 0.1875 2.8125 0.1875 6 1 C8.366066 4.04208486 9.66327263 7.40111861 11 11 C11.50660156 10.06027344 11.50660156 10.06027344 12.0234375 9.1015625 C12.46945313 8.28429687 12.91546875 7.46703125 13.375 6.625 C13.81585938 5.81289062 14.25671875 5.00078125 14.7109375 4.1640625 C16 2 16 2 18 0 C21.125 0.375 21.125 0.375 24 1 C25.0176403 6.01608525 25.11856434 10.78608306 25.0625 15.875 C25.05798828 16.65875 25.05347656 17.4425 25.04882812 18.25 C25.03714093 20.16670014 25.01920908 22.08336048 25 24 C23.33388095 24.042721 21.66617115 24.04063832 20 24 C17.83909114 21.83909114 18.27599869 16.7994153 18 14 C16.35 16.64 14.7 19.28 13 22 C10.6875 21.875 10.6875 21.875 8 21 C6.1875 17.9375 6.1875 17.9375 5 15 C4.34 17.97 3.68 20.94 3 24 C1.33388095 24.042721 -0.33382885 24.04063832 -2 24 C-3 23 -3 23 -3.1328125 21.06640625 C-3.0815047 4.62225705 -3.0815047 4.62225705 0 0 Z " fill="#2196A0" transform="translate(91,154)"/>
<path d="M0 0 C2.21875 1.1640625 2.21875 1.1640625 3.875 2.5625 C7.25577175 5.19950197 7.78662405 5.34979965 11.8125 5 C14.05900407 4.77001804 14.05900407 4.77001804 16 4 C16.66 3.01 17.32 2.02 18 1 C22.33454707 0.13138742 26.11951217 0.56874065 30.0625 2.5 C30.701875 2.995 31.34125 3.49 32 4 C31.67 4.66 31.34 5.32 31 6 C19.43194468 9.45282068 7.46370903 9.46894397 -4.49926758 9.39111328 C-7.43032489 9.37503935 -10.35999997 9.39104572 -13.29101562 9.41015625 C-24.84173101 9.42109201 -35.71444334 8.480694 -47 6 C-47 5.01 -47 4.02 -47 3 C-42.04604869 1.01841948 -38.26149114 0.49082344 -33 1 C-32.360625 1.680625 -31.72125 2.36125 -31.0625 3.0625 C-29.21824496 5.19447052 -29.21824496 5.19447052 -26.9375 5.18359375 C-22.97729153 4.87745921 -20.7554954 4.65899514 -17.67578125 1.97265625 C-12.62016799 -1.75447469 -5.98545817 -0.7937238 0 0 Z " fill="#E7E1D0" transform="translate(93,143)"/>
<path d="M0 0 C0.99 0 1.98 0 3 0 C2.690625 0.886875 2.38125 1.77375 2.0625 2.6875 C0.18429999 7.87245579 0.18429999 7.87245579 0.71875 13.14453125 C1.14531405 17.47534131 -0.79456609 20.37594512 -2.8125 24.125 C-3.18181641 24.84042969 -3.55113281 25.55585937 -3.93164062 26.29296875 C-5.50461179 29.31465483 -7.10692764 32.16039146 -9 35 C-16.14893617 35.56737589 -16.14893617 35.56737589 -20 33 C-20.99 33.66 -21.98 34.32 -23 35 C-26.35546875 35.1953125 -26.35546875 35.1953125 -30.1875 35.125 C-31.45980469 35.10695312 -32.73210937 35.08890625 -34.04296875 35.0703125 C-35.01878906 35.04710937 -35.99460937 35.02390625 -37 35 C-36.65775391 36.33804688 -36.65775391 36.33804688 -36.30859375 37.703125 C-36.02113281 38.87359375 -35.73367187 40.0440625 -35.4375 41.25 C-35.14746094 42.41015625 -34.85742188 43.5703125 -34.55859375 44.765625 C-34.04820036 47.72090983 -33.97003835 49.24434101 -35 52 C-35.99 51.01 -36.98 50.02 -38 49 C-38.33 50.32 -38.66 51.64 -39 53 C-39.13277344 51.92621094 -39.26554687 50.85242188 -39.40234375 49.74609375 C-39.58069564 48.30989167 -39.75908295 46.87369399 -39.9375 45.4375 C-40.02451172 44.73302734 -40.11152344 44.02855469 -40.20117188 43.30273438 C-40.75384491 38.86088073 -41.35394596 34.42925336 -42 30 C-40.17275391 30.08701172 -40.17275391 30.08701172 -38.30859375 30.17578125 C-36.68493439 30.22270782 -35.06123328 30.26820486 -33.4375 30.3125 C-32.63763672 30.35439453 -31.83777344 30.39628906 -31.01367188 30.43945312 C-24.73004224 30.56769046 -21.77588673 29.07072224 -17 25 C-16.34 25.33 -15.68 25.66 -15 26 C-16.65 27.32 -18.3 28.64 -20 30 C-16.78440578 30.33988233 -16.78440578 30.33988233 -14.4375 27.625 C-13.633125 26.75875 -12.82875 25.8925 -12 25 C-11.34 24.34 -10.68 23.68 -10 23 C-9.17970274 21.01977364 -8.41713059 19.01539654 -7.6875 17 C-5.48749569 11.11367893 -2.94299714 5.54786269 0 0 Z " fill="#145055" transform="translate(147,91)"/>
<path d="M0 0 C2.67578125 0.34375 2.67578125 0.34375 4.6953125 2.3125 C5.28699219 3.1478125 5.87867188 3.983125 6.48828125 4.84375 C7.09285156 5.6790625 7.69742188 6.514375 8.3203125 7.375 C8.76761719 8.0246875 9.21492188 8.674375 9.67578125 9.34375 C9.82015625 8.209375 9.96453125 7.075 10.11328125 5.90625 C10.67578125 2.34375 10.67578125 2.34375 11.67578125 1.34375 C13.65578125 1.34375 15.63578125 1.34375 17.67578125 1.34375 C17.67578125 8.93375 17.67578125 16.52375 17.67578125 24.34375 C15.69578125 24.34375 13.71578125 24.34375 11.67578125 24.34375 C8.33450464 21.00247339 5.98342723 17.47322175 3.67578125 13.34375 C3.34578125 16.97375 3.01578125 20.60375 2.67578125 24.34375 C1.02578125 24.34375 -0.62421875 24.34375 -2.32421875 24.34375 C-3.97815992 22.68980883 -3.45421558 20.74059587 -3.45703125 18.46875 C-3.45832031 17.48390625 -3.45960937 16.4990625 -3.4609375 15.484375 C-3.45707031 14.44796875 -3.45320313 13.4115625 -3.44921875 12.34375 C-3.45501953 10.78914062 -3.45501953 10.78914062 -3.4609375 9.203125 C-3.45964844 8.21828125 -3.45835938 7.2334375 -3.45703125 6.21875 C-3.45590332 5.30867187 -3.45477539 4.39859375 -3.45361328 3.4609375 C-3.27086185 0.4707103 -2.96354233 0.43830542 0 0 Z " fill="#1C959F" transform="translate(43.32421875,153.65625)"/>
<path d="M0 0 C1.093125 0.226875 2.18625 0.45375 3.3125 0.6875 C4.29591615 3.41520166 5.27435053 6.14452105 6.25 8.875 C6.66668945 10.02838867 6.66668945 10.02838867 7.09179688 11.20507812 C9.8576834 18.96955474 9.8576834 18.96955474 10.3125 22.6875 C9.3125 23.6875 9.3125 23.6875 6.875 23.9375 C6.029375 23.855 5.18375 23.7725 4.3125 23.6875 C3.6525 22.6975 2.9925 21.7075 2.3125 20.6875 C-1.1875 20.1875 -1.1875 20.1875 -4.6875 20.6875 C-5.3475 21.6775 -6.0075 22.6675 -6.6875 23.6875 C-9.3125 23.875 -9.3125 23.875 -11.6875 23.6875 C-13.37271944 18.69062841 -11.7900576 15.22788589 -9.9375 10.5625 C-9.67195313 9.84707031 -9.40640625 9.13164062 -9.1328125 8.39453125 C-5.71406945 -0.48424317 -5.71406945 -0.48424317 0 0 Z M-1.6875 9.6875 C-2.0175 11.0075 -2.3475 12.3275 -2.6875 13.6875 C-1.6975 13.6875 -0.7075 13.6875 0.3125 13.6875 C-0.3475 12.3675 -1.0075 11.0475 -1.6875 9.6875 Z " fill="#1E99A3" transform="translate(130.6875,154.3125)"/>
<path d="M0 0 C2.475 0.99 2.475 0.99 5 2 C5.33 7.28 5.66 12.56 6 18 C7.65 17.67 9.3 17.34 11 17 C12.4807848 14.0384304 12.35314037 11.16493705 12.5625 7.875 C12.64628906 6.59367188 12.73007813 5.31234375 12.81640625 3.9921875 C12.87699219 3.00476563 12.93757813 2.01734375 13 1 C14.65614657 0.61781233 16.32457024 0.28604898 18 0 C19 1 19 1 19.11352539 2.85766602 C19.10828857 3.64842529 19.10305176 4.43918457 19.09765625 5.25390625 C19.09443359 6.10791016 19.09121094 6.96191406 19.08789062 7.84179688 C19.07951172 8.73962891 19.07113281 9.63746094 19.0625 10.5625 C19.05798828 11.46419922 19.05347656 12.36589844 19.04882812 13.29492188 C19.03700225 15.53001314 19.0205222 17.76497437 19 20 C18.01 20.33 17.02 20.66 16 21 C16 21.66 16 22.32 16 23 C13.18772378 23.93742541 11.41253156 24.13470844 8.5 24.125 C7.7265625 24.12757813 6.953125 24.13015625 6.15625 24.1328125 C4 24 4 24 1 23 C1 22.34 1 21.68 1 21 C0.34 21 -0.32 21 -1 21 C-2.1482685 18.703463 -2.11561175 17.41686833 -2.09765625 14.8671875 C-2.09443359 14.06152344 -2.09121094 13.25585938 -2.08789062 12.42578125 C-2.07951172 11.58402344 -2.07113281 10.74226562 -2.0625 9.875 C-2.05798828 9.02550781 -2.05347656 8.17601562 -2.04882812 7.30078125 C-2.03702874 5.20049091 -2.01909306 3.1002367 -2 1 C-1.34 0.67 -0.68 0.34 0 0 Z " fill="#1C939F" transform="translate(66,154)"/>
<path d="M0 0 C6.6 0 13.2 0 20 0 C20.66 1.32 21.32 2.64 22 4 C21.34 4.66 20.68 5.32 20 6 C19.01 6 18.02 6 17 6 C17 8.97 17 11.94 17 15 C18.32 15.66 19.64 16.32 21 17 C20.67 18.32 20.34 19.64 20 21 C14.54545455 21.36363636 14.54545455 21.36363636 12.3125 19.875 C10.41652621 17.16646601 10.70721247 15.07641345 10.8125 11.8125 C10.83957031 10.72582031 10.86664063 9.63914062 10.89453125 8.51953125 C10.92933594 7.68808594 10.96414062 6.85664063 11 6 C10.34 6 9.68 6 9 6 C8.95101562 6.59167969 8.90203125 7.18335938 8.8515625 7.79296875 C7.99923106 16.8012303 7.99923106 16.8012303 6 20 C3.375 20.8125 3.375 20.8125 1 21 C-0.48114019 17.14903552 0.61678965 14.76540594 2 11 C2.36106097 9.33911955 2.70462173 7.67381019 3 6 C1.68 5.67 0.36 5.34 -1 5 C-0.67 3.35 -0.34 1.7 0 0 Z " fill="#21949F" transform="translate(124,19)"/>
<path d="M0 0 C4.67880217 0.31881341 7.49568215 1.76516513 11.25 4.5625 C14.21204897 8.67114858 14.7762359 12.43148063 14.609375 17.37890625 C14.04502059 20.80797271 12.4733314 22.95802608 10.25 25.5625 C7.16111478 27.62175681 6.54064073 27.8015374 3.0625 27.6875 C1.804375 27.64625 0.54625 27.605 -0.75 27.5625 C-0.75 26.2425 -0.75 24.9225 -0.75 23.5625 C-2.07 22.9025 -3.39 22.2425 -4.75 21.5625 C-4.09 20.2425 -3.43 18.9225 -2.75 17.5625 C-2.09 18.5525 -1.43 19.5425 -0.75 20.5625 C2.715 20.0675 2.715 20.0675 6.25 19.5625 C6.97256829 15.08116426 6.97256829 15.08116426 7.25 10.5625 C6.62351562 10.50191406 5.99703125 10.44132812 5.3515625 10.37890625 C4.53429687 10.29511719 3.71703125 10.21132812 2.875 10.125 C1.65683594 10.00318359 1.65683594 10.00318359 0.4140625 9.87890625 C-1.75 9.5625 -1.75 9.5625 -3.75 8.5625 C-3.75 7.9025 -3.75 7.2425 -3.75 6.5625 C-4.74 6.2325 -5.73 5.9025 -6.75 5.5625 C-5.11189379 1.46723446 -4.4785412 0.67178118 0 0 Z " fill="#F3A838" transform="translate(62.75,65.4375)"/>
<path d="M0 0 C1.00109515 3.31070838 1.10356134 6.30084769 1.0625 9.75 C1.05347656 10.73484375 1.04445312 11.7196875 1.03515625 12.734375 C1.02355469 13.48203125 1.01195312 14.2296875 1 15 C0.01 15.495 0.01 15.495 -1 16 C-1 11.71 -1 7.42 -1 3 C-2.14814997 5.29629994 -2.30769809 7.07698086 -2.5625 9.625 C-2.64628906 10.44226563 -2.73007813 11.25953125 -2.81640625 12.1015625 C-2.90728516 13.04128906 -2.90728516 13.04128906 -3 14 C-7.55384615 14.36923077 -7.55384615 14.36923077 -9.8125 12.5 C-10.204375 12.005 -10.59625 11.51 -11 11 C-10.76410156 12.00160156 -10.52820313 13.00320312 -10.28515625 14.03515625 C-9.93499822 18.90379191 -11.11057965 21.29637057 -13.4375 25.4375 C-13.77587891 26.07365234 -14.11425781 26.70980469 -14.46289062 27.36523438 C-15.29231987 28.91895395 -16.14393703 30.4607945 -17 32 C-17.99 32 -18.98 32 -20 32 C-20 31.34 -20 30.68 -20 30 C-21.98 30.99 -21.98 30.99 -24 32 C-23.44081343 26.66686245 -21.60251073 22.63164972 -19.1875 17.9375 C-18.84396484 17.24333984 -18.50042969 16.54917969 -18.14648438 15.83398438 C-15.42795092 10.46322315 -12.47547895 5.74949061 -7.5 2.1875 C-6.9328125 1.76855469 -6.365625 1.34960938 -5.78125 0.91796875 C-4 0 -4 0 0 0 Z " fill="#135C63" transform="translate(155,74)"/>
<path d="M0 0 C2.29296875 0.046875 2.29296875 0.046875 5 1 C6.69545781 3.09491123 7.98401052 4.94594044 9.3125 7.25 C9.67150391 7.82363281 10.03050781 8.39726563 10.40039062 8.98828125 C12.67633639 12.79452959 13 14.36687076 13 19 C6.07 19 -0.86 19 -8 19 C-9.03131835 13.84340826 -8.93995575 13.15325363 -6.29296875 8.98828125 C-5.90753906 8.41464844 -5.52210938 7.84101562 -5.125 7.25 C-4.74730469 6.66089844 -4.36960938 6.07179688 -3.98046875 5.46484375 C-1.27196631 1.27196631 -1.27196631 1.27196631 0 0 Z M1 8 C0.01 9.98 -0.98 11.96 -2 14 C0.64 14 3.28 14 6 14 C4.515 11.03 4.515 11.03 3 8 C2.34 8 1.68 8 1 8 Z " fill="#1D8E99" transform="translate(146,46)"/>
<path d="M0 0 C1.32 0.33 2.64 0.66 4 1 C4.33 2.98 4.66 4.96 5 7 C5.66 7 6.32 7 7 7 C7 7.66 7 8.32 7 9 C9.475 9.495 9.475 9.495 12 10 C12 11.32 12 12.64 12 14 C11.071875 14.350625 10.14375 14.70125 9.1875 15.0625 C5.0142355 17.59919019 4.53814504 19.4710174 3 24 C1.1875 23.375 1.1875 23.375 -1 22 C-1.680625 20.5459375 -1.680625 20.5459375 -2.375 19.0625 C-4.35284429 15.33502423 -6.1550652 14.53797392 -10 13 C-9.67 12.01 -9.34 11.02 -9 10 C-8.05125 9.5875 -7.1025 9.175 -6.125 8.75 C-1.92695928 6.3990972 -1.51525904 4.46159606 0 0 Z " fill="#1C95A0" transform="translate(34,24)"/>
<path d="M0 0 C0.66 0 1.32 0 2 0 C3.16180462 8.87770271 3.50097784 15.16065852 -1 23 C-1.67834587 24.66194738 -2.35199575 26.32598903 -3 28 C-3.66 28 -4.32 28 -5 28 C-6.26332183 23.78892722 -6.00441956 21.4543291 -4.0625 17.625 C-3.39025121 16.40811576 -2.70765749 15.1966397 -2 14 C-2.99 14 -3.98 14 -5 14 C-5.268125 14.85464844 -5.53625 15.70929688 -5.8125 16.58984375 C-7.01336486 20.03838 -8.44116366 23.26166404 -10 26.5625 C-12.14348623 31.11204042 -12.14348623 31.11204042 -14.0625 35.7578125 C-15.2209779 38.52850548 -16.71795614 40.07452549 -19 42 C-19.66 42 -20.32 42 -21 42 C-21.33 42.99 -21.66 43.98 -22 45 C-23.32 44.67 -24.64 44.34 -26 44 C-25.236875 43.4225 -24.47375 42.845 -23.6875 42.25 C-21.29718659 40.24880738 -19.58235237 38.66501451 -18 36 C-18 34.68 -18 33.36 -18 32 C-19.65 32 -21.3 32 -23 32 C-23.33 30.68 -23.66 29.36 -24 28 C-20.535 27.505 -20.535 27.505 -17 27 C-17 27.66 -17 28.32 -17 29 C-16.01 29 -15.02 29 -14 29 C-13.7525 28.175 -13.505 27.35 -13.25 26.5 C-12.26187851 23.73325983 -11.23444631 21.58657771 -9.8125 19.0625 C-7.71980663 15.06875186 -8.11507151 12.42464245 -9 8 C-8.34 7.34 -7.68 6.68 -7 6 C-6.6596875 6.9590625 -6.6596875 6.9590625 -6.3125 7.9375 C-5.879375 8.618125 -5.44625 9.29875 -5 10 C-2.525 10.495 -2.525 10.495 0 11 C0 7.37 0 3.74 0 0 Z " fill="#09555A" transform="translate(152,77)"/>
<path d="M0 0 C2.64 0 5.28 0 8 0 C12.12376682 7.51479821 12.12376682 7.51479821 11.8203125 11.15625 C11.25 13.0625 11.25 13.0625 10 16 C1.8645605 17.44282367 1.8645605 17.44282367 -1.5625 15.6875 C-3 14 -3 14 -3 12 C-3.66 11.67 -4.32 11.34 -5 11 C-4.360625 9.9275 -3.72125 8.855 -3.0625 7.75 C-1.59398727 5.19177818 -0.47145458 2.94659114 0 0 Z " fill="#ECA639" transform="translate(81,80)"/>
<path d="M0 0 C4.30690918 2.05834934 7.117174 4.62671511 9.6875 8.625 C10 11 10 11 8.625 13.3125 C8.08875 13.869375 7.5525 14.42625 7 15 C6.5875 13.906875 6.175 12.81375 5.75 11.6875 C4.37549449 8.4781593 3.11399711 6.75162337 0 5 C-3.61930698 3.79356434 -6.19231005 3.67731441 -10 4 C-13.70390021 6.02666238 -15.65363011 7.48044516 -18 11 C-18.45601261 13.50896686 -18.45601261 13.50896686 -18.625 16.1875 C-18.69976562 17.08855469 -18.77453125 17.98960938 -18.8515625 18.91796875 C-18.90054688 19.60503906 -18.94953125 20.29210937 -19 21 C-19.33 21 -19.66 21 -20 21 C-20.33 18.69 -20.66 16.38 -21 14 C-21.99 14 -22.98 14 -24 14 C-19.42509658 2.9439834 -12.35662741 -2.5011404 0 0 Z " fill="#27594F" transform="translate(113,63)"/>
<path d="M0 0 C6.6 0 13.2 0 20 0 C20.66 1.32 21.32 2.64 22 4 C21.34 4.66 20.68 5.32 20 6 C19.01 6 18.02 6 17 6 C17 8.97 17 11.94 17 15 C18.32 15.66 19.64 16.32 21 17 C20.67 18.32 20.34 19.64 20 21 C14.54545455 21.36363636 14.54545455 21.36363636 12.3125 19.875 C10.41652621 17.16646601 10.70721247 15.07641345 10.8125 11.8125 C10.83957031 10.72582031 10.86664063 9.63914062 10.89453125 8.51953125 C10.92933594 7.68808594 10.96414062 6.85664063 11 6 C10.34 6 9.68 6 9 6 C8.67 6.66 8.34 7.32 8 8 C8 6.68 8 5.36 8 4 C10.375 4.3125 10.375 4.3125 13 5 C13.99 6.485 13.99 6.485 15 8 C15.33 6.68 15.66 5.36 16 4 C17.32 4 18.64 4 20 4 C19.67 3.34 19.34 2.68 19 2 C12.73 2 6.46 2 0 2 C-0.33 2.66 -0.66 3.32 -1 4 C-0.67 2.68 -0.34 1.36 0 0 Z " fill="#2D929A" transform="translate(124,19)"/>
<path d="M0 0 C5.12515937 -0.52816528 9.89351818 -0.81275941 15 0 C17.99764573 2.60934965 19.32053715 5.46041495 21 9 C23.70879335 10.35439668 26.00933268 10.06501451 29 10 C29.66 8.35 30.32 6.7 31 5 C32.485 5.495 32.485 5.495 34 6 C34.495 7.485 34.495 7.485 35 9 C34.34 9 33.68 9 33 9 C32.75636719 9.63808594 32.51273438 10.27617187 32.26171875 10.93359375 C31 13 31 13 29.08203125 13.78515625 C23.71551532 14.44096112 20.73270128 13.90763549 16.41015625 10.6171875 C15 9 15 9 13 4 C9.04 4 5.08 4 1 4 C0.67 2.68 0.34 1.36 0 0 Z " fill="#195556" transform="translate(78,135)"/>
<path d="M0 0 C2.9375 0.75 2.9375 0.75 4.9375 2.75 C5.41133353 6.38272373 5.3966452 8.10379564 3.25 11.125 C0.9375 12.75 0.9375 12.75 -1.625 13.25 C-4.0625 12.75 -4.0625 12.75 -5.9375 11.1875 C-7.54729787 7.69960462 -7.01146433 5.41029097 -6.0625 1.75 C-3.0625 -0.25 -3.0625 -0.25 0 0 Z " fill="#115354" transform="translate(107.0625,74.25)"/>
<path d="M0 0 C2.625 0.375 2.625 0.375 5 1.9375 C6.625 4.375 6.625 4.375 6.5625 8 C5.625 11.375 5.625 11.375 2.625 13.375 C0.125 13.75 0.125 13.75 -2.375 13.375 C-4.25 11.8125 -4.25 11.8125 -5.375 9.375 C-4.93035224 0.77847667 -4.93035224 0.77847667 0 0 Z " fill="#125354" transform="translate(64.375,73.625)"/>
<path d="M0 0 C-0.99 0.66 -1.98 1.32 -3 2 C-2.34 2.66 -1.68 3.32 -1 4 C-2.65 4 -4.3 4 -6 4 C-5.04541284 8.39989816 -5.04541284 8.39989816 -1.875 11.3125 C1.75034327 12.17942991 5.29055001 12.6227678 9 13 C8.01 13.99 7.02 14.98 6 16 C6.66 16.66 7.32 17.32 8 18 C1.54351365 17.43364155 -4.39822163 16.84569509 -9 11.8125 C-10.43556247 7.77498056 -9.90599274 5.18150495 -9 1 C-6.04335481 -0.4783226 -3.25770263 -0.06032783 0 0 Z " fill="#275D5F" transform="translate(48,110)"/>
<path d="M0 0 C0.66 0 1.32 0 2 0 C3.16180462 8.87770271 3.50097784 15.16065852 -1 23 C-1.67834587 24.66194738 -2.35199575 26.32598903 -3 28 C-3.66 28 -4.32 28 -5 28 C-6.83508773 22.03596489 -4.71739052 18.24817912 -2 13 C-2.78375 12.9175 -3.5675 12.835 -4.375 12.75 C-7 12 -7 12 -8.3125 9.9375 C-8.539375 9.298125 -8.76625 8.65875 -9 8 C-8.34 7.34 -7.68 6.68 -7 6 C-6.773125 6.639375 -6.54625 7.27875 -6.3125 7.9375 C-5.879375 8.618125 -5.44625 9.29875 -5 10 C-3.35 10.33 -1.7 10.66 0 11 C0 7.37 0 3.74 0 0 Z " fill="#0E5158" transform="translate(152,77)"/>
<path d="M0 0 C1.32 0 2.64 0 4 0 C7.04005914 9.89903556 8.88255281 17.71629807 6 28 C5.01 28.33 4.02 28.66 3 29 C3.03480469 28.20078125 3.06960937 27.4015625 3.10546875 26.578125 C3.28048306 19.47754432 2.65521918 13.37915063 0.65625 6.55859375 C0 4 0 4 0 0 Z " fill="#205857" transform="translate(125,60)"/>
<path d="M0 0 C0.99 0 1.98 0 3 0 C1.70577974 4.06556017 0.21247538 7.9237812 -1.56640625 11.80078125 C-2.05173828 12.85974609 -2.53707031 13.91871094 -3.03710938 15.00976562 C-3.54048828 16.09966797 -4.04386719 17.18957031 -4.5625 18.3125 C-5.06974609 19.42173828 -5.57699219 20.53097656 -6.09960938 21.67382812 C-9.8680467 29.8680467 -9.8680467 29.8680467 -11 31 C-12.66617115 31.04063832 -14.33388095 31.042721 -16 31 C-16 30.01 -16 29.02 -16 28 C-15.113125 27.38125 -14.22625 26.7625 -13.3125 26.125 C-9.07024008 22.82878396 -7.96257677 18.30930977 -6.234375 13.3828125 C-4.53272834 8.71943907 -2.32311627 4.3793213 0 0 Z " fill="#24A5B0" transform="translate(147,91)"/>
<path d="M0 0 C0.99 0.33 1.98 0.66 3 1 C2.9375 2.8125 2.9375 2.8125 2 5 C-6.43439957 9.92006642 -14.88995545 8.1301148 -24 6 C-24 5.01 -24 4.02 -24 3 C-18.555 2.505 -18.555 2.505 -13 2 C-13 2.99 -13 3.98 -13 5 C-12.31292969 4.7834375 -11.62585938 4.566875 -10.91796875 4.34375 C-10.01691406 4.0653125 -9.11585937 3.786875 -8.1875 3.5 C-7.29417969 3.2215625 -6.40085937 2.943125 -5.48046875 2.65625 C-3 2 -3 2 0 2 C0 1.34 0 0.68 0 0 Z " fill="#105254" transform="translate(126,106)"/>
<path d="M0 0 C2.3125 0.1875 2.3125 0.1875 5 1 C7.95963083 4.67402448 8 6.07735445 8 11 C1.4 10.67 -5.2 10.34 -12 10 C-11.67 8.68 -11.34 7.36 -11 6 C-8.22003893 6 -5.57507433 6.21297929 -2.8125 6.5 C-1.91144531 6.5928125 -1.01039063 6.685625 -0.08203125 6.78125 C0.60503906 6.8534375 1.29210937 6.925625 2 7 C1.34 4.69 0.68 2.38 0 0 Z " fill="#1B98A3" transform="translate(151,54)"/>
<path d="M0 0 C1.00109515 3.31070838 1.10356134 6.30084769 1.0625 9.75 C1.05347656 10.73484375 1.04445312 11.7196875 1.03515625 12.734375 C1.02355469 13.48203125 1.01195312 14.2296875 1 15 C0.01 15.495 0.01 15.495 -1 16 C-1 11.71 -1 7.42 -1 3 C-2.14814997 5.29629994 -2.30769809 7.07698086 -2.5625 9.625 C-2.64628906 10.44226563 -2.73007813 11.25953125 -2.81640625 12.1015625 C-2.87699219 12.72804688 -2.93757812 13.35453125 -3 14 C-5.375 14.125 -5.375 14.125 -8 14 C-8.66 13.34 -9.32 12.68 -10 12 C-10 11.01 -10 10.02 -10 9 C-9.34 8.67 -8.68 8.34 -8 8 C-7.67 6.845 -7.34 5.69 -7 4.5 C-6.67 3.345 -6.34 2.19 -6 1 C-4 0 -4 0 0 0 Z " fill="#37696A" transform="translate(155,74)"/>
<path d="M0 0 C2.50938145 3.76407217 2.5014714 6.64664683 2 11 C1.16485472 14.39368284 0.13734486 17.69628397 -1 21 C-1.66 20.34 -2.32 19.68 -3 19 C-3.99 19.66 -4.98 20.32 -6 21 C-6.99 20.67 -7.98 20.34 -9 20 C-8.65066406 19.50371094 -8.30132812 19.00742188 -7.94140625 18.49609375 C-4.85889249 13.89415395 -3.34610059 10.53760939 -3 5 C-2.34 5 -1.68 5 -1 5 C-0.67 3.35 -0.34 1.7 0 0 Z " fill="#E7A53C" transform="translate(127,73)"/>
<path d="M0 0 C2.42013032 3.75705716 2.36588162 7.61020999 2.5 11.9375 C2.64647426 16.63760051 2.91157149 20.69682673 5 25 C3.68 24.67 2.36 24.34 1 24 C0.67 24.99 0.34 25.98 0 27 C-1.80384963 22.36152953 -2.27018769 18.46617066 -2.25 13.5 C-2.25515625 12.2315625 -2.2603125 10.963125 -2.265625 9.65625 C-2.00698139 6.09609683 -1.28821239 3.31254615 0 0 Z " fill="#E1A53D" transform="translate(45,66)"/>
<path d="M0 0 C0.33 0.99 0.66 1.98 1 3 C-0.32 3 -1.64 3 -3 3 C-3 6.63 -3 10.26 -3 14 C-3.33 14 -3.66 14 -4 14 C-4.12375 13.0925 -4.2475 12.185 -4.375 11.25 C-4.93015248 8.36320708 -5.31993358 6.3874628 -7 4 C-9.05000871 3.19471111 -9.05000871 3.19471111 -11 3 C-11 3.66 -11 4.32 -11 5 C-13 6.625 -13 6.625 -15 8 C-15 6.35 -15 4.7 -15 3 C-15.99 3 -16.98 3 -18 3 C-18.33 3.66 -18.66 4.32 -19 5 C-19.33 4.34 -19.66 3.68 -20 3 C-19.67 2.34 -19.34 1.68 -19 1 C-12.74133095 -0.39081535 -6.38034555 -0.09429082 0 0 Z " fill="#0E96A2" transform="translate(143,20)"/>
<path d="M0 0 C2 1 2 1 2.83984375 3.07421875 C3.07013705 7.28128409 1.43903347 10.11951041 -0.4375 13.8125 C-0.77587891 14.50537109 -1.11425781 15.19824219 -1.46289062 15.91210938 C-2.29630207 17.61414682 -3.14651924 19.30793715 -4 21 C-4.99 21 -5.98 21 -7 21 C-7.33 21.66 -7.66 22.32 -8 23 C-9.43186076 18.70441771 -7.4926899 15.96268784 -5.6875 12.0625 C-5.36587891 11.34642578 -5.04425781 10.63035156 -4.71289062 9.89257812 C-3.20900373 6.56055768 -1.6724481 3.25151077 0 0 Z " fill="#1B6168" transform="translate(145,101)"/>
<path d="M0 0 C0.66 0.33 1.32 0.66 2 1 C0.35 2.32 -1.3 3.64 -3 5 C-2.09507813 5.09087891 -2.09507813 5.09087891 -1.171875 5.18359375 C-0.37265625 5.26738281 0.4265625 5.35117188 1.25 5.4375 C2.43335938 5.55931641 2.43335938 5.55931641 3.640625 5.68359375 C5.82364639 5.97634993 7.8773182 6.42064419 10 7 C9.01 8.485 9.01 8.485 8 10 C0.85106383 10.56737589 0.85106383 10.56737589 -3 8 C-3.99 8.33 -4.98 8.66 -6 9 C-6.66 8.67 -7.32 8.34 -8 8 C-10.0374763 7.77141886 -12.08040303 7.58975722 -14.125 7.4375 C-15.76855469 7.31181641 -15.76855469 7.31181641 -17.4453125 7.18359375 C-18.28835937 7.12300781 -19.13140625 7.06242187 -20 7 C-20 6.67 -20 6.34 -20 6 C-18.71416016 5.97873047 -18.71416016 5.97873047 -17.40234375 5.95703125 C-9.95923463 5.64655206 -5.56957895 5.05147858 0 0 Z " fill="#255A57" transform="translate(130,116)"/>
<path d="M0 0 C2.05078125 0.03255208 4.1015625 0.06510417 6.15234375 0.09765625 C5.82234375 3.06765625 5.49234375 6.03765625 5.15234375 9.09765625 C1.52234375 8.76765625 -2.10765625 8.43765625 -5.84765625 8.09765625 C-5.18765625 7.43765625 -4.52765625 6.77765625 -3.84765625 6.09765625 C-3.48323392 4.43751009 -3.14792742 2.77059561 -2.84765625 1.09765625 C-1.84765625 0.09765625 -1.84765625 0.09765625 0 0 Z " fill="#DBA03D" transform="translate(65.84765625,54.90234375)"/>
<path d="M0 0 C-0.52609334 3.97690895 -2.33402369 5.560878 -5.3125 8.125 C-6.09238281 8.80820312 -6.87226562 9.49140625 -7.67578125 10.1953125 C-9.73556128 11.79467111 -11.62642028 12.94628269 -14 14 C-15 12 -15 12 -14.875 10 C-14 8 -14 8 -11.5 6.9375 C-10.675 6.628125 -9.85 6.31875 -9 6 C-8.67 5.01 -8.34 4.02 -8 3 C-5.02827774 0.2332241 -4.25809375 0 0 0 Z " fill="#185254" transform="translate(73,33)"/>
<path d="M0 0 C1 3 1 3 0.25 4.9609375 C-1.02251013 7.03671966 -2.39136515 8.79919944 -4 10.625 C-4.515625 11.21539062 -5.03125 11.80578125 -5.5625 12.4140625 C-6.67451212 13.64090196 -7.82916568 14.82916568 -9 16 C-10.32 15.34 -11.64 14.68 -13 14 C-12.34 13.01 -11.68 12.02 -11 11 C-10.34 11 -9.68 11 -9 11 C-8.814375 10.29875 -8.62875 9.5975 -8.4375 8.875 C-6.45179974 4.90359949 -3.46066724 2.6926582 0 0 Z " fill="#235A5E" transform="translate(58,43)"/>
<path d="M0 0 C0.66 0 1.32 0 2 0 C3.30062431 3.81516464 2.89369853 7.27561763 2.5625 11.25 C2.46066406 12.51328125 2.35882813 13.7765625 2.25390625 15.078125 C2.17011719 16.04234375 2.08632812 17.0065625 2 18 C0.68 17.67 -0.64 17.34 -2 17 C-1.85978195 14.35375716 -1.71310224 11.70815422 -1.5625 9.0625 C-1.52318359 8.30775391 -1.48386719 7.55300781 -1.44335938 6.77539062 C-1.11328125 1.11328125 -1.11328125 1.11328125 0 0 Z " fill="#0B96A2" transform="translate(91,159)"/>
<path d="M0 0 C0.66 0 1.32 0 2 0 C1.35534798 4.33304076 -0.18925122 7.86672065 -2.0625 11.8125 C-2.61035156 12.97394531 -3.15820312 14.13539062 -3.72265625 15.33203125 C-4.14417969 16.21246094 -4.56570312 17.09289062 -5 18 C-5.99 18 -6.98 18 -8 18 C-6.10463724 11.48180123 -3.4821006 5.82185199 0 0 Z " fill="#24A4AE" transform="translate(143,88)"/>
<path d="M0 0 C0.66 0.33 1.32 0.66 2 1 C2 1.99 2 2.98 2 4 C0.37064759 5.37868281 -1.29749607 6.71274093 -3 8 C-4.21693876 10.43387753 -4.31959896 12.41838846 -4.5625 15.125 C-4.68818359 16.49011719 -4.68818359 16.49011719 -4.81640625 17.8828125 C-4.87699219 18.58148438 -4.93757813 19.28015625 -5 20 C-5.33 20 -5.66 20 -6 20 C-6.33 17.69 -6.66 15.38 -7 13 C-7.99 13 -8.98 13 -10 13 C-7.55426749 7.20217529 -5.10557473 3.71314526 0 0 Z " fill="#2A5A4E" transform="translate(99,64)"/>
<path d="M0 0 C1.65 0.33 3.3 0.66 5 1 C4.01 1.33 3.02 1.66 2 2 C1.25656017 3.97274977 0.60449269 5.98033839 0 8 C-1.01311071 10.30443317 -2.05538074 12.59624591 -3.125 14.875 C-3.66382813 16.02742188 -4.20265625 17.17984375 -4.7578125 18.3671875 C-5.16773438 19.23601562 -5.57765625 20.10484375 -6 21 C-6.99 20.01 -7.98 19.02 -9 18 C-8.34 17.67 -7.68 17.34 -7 17 C-6.31760646 15.00531118 -5.65629516 13.00342734 -5 11 C-3.39157632 7.30620682 -1.70224545 3.65138146 0 0 Z " fill="#065B65" transform="translate(145,89)"/>
<path d="M0 0 C6.625 -0.25 6.625 -0.25 10 2 C10 3.32 10 4.64 10 6 C11.98 6 13.96 6 16 6 C16 6.33 16 6.66 16 7 C6.21414538 7.57563851 6.21414538 7.57563851 2 4 C0.6875 1.8125 0.6875 1.8125 0 0 Z " fill="#E5953C" transform="translate(52,87)"/>
<path d="M0 0 C2.79224194 0.3079239 5.58371427 0.62112437 8.375 0.9375 C9.1690625 1.02451172 9.963125 1.11152344 10.78125 1.20117188 C16.7734375 1.88671875 16.7734375 1.88671875 19 3 C18.67 3.66 18.34 4.32 18 5 C11.07 4.505 11.07 4.505 4 4 C3.67 4.66 3.34 5.32 3 6 C2.01 6.495 2.01 6.495 1 7 C0.67 4.69 0.34 2.38 0 0 Z " fill="#095357" transform="translate(105,121)"/>
<path d="M0 0 C0.99 0.33 1.98 0.66 3 1 C2.9375 2.8125 2.9375 2.8125 2 5 C-3.35714422 8.1250008 -7.89150586 8.37398944 -14 8 C-14 7.67 -14 7.34 -14 7 C-10.535 6.505 -10.535 6.505 -7 6 C-7.33 5.34 -7.66 4.68 -8 4 C-5.09399739 2.74335022 -3.20395416 2 0 2 C0 1.34 0 0.68 0 0 Z " fill="#1D5858" transform="translate(126,106)"/>
<path d="M0 0 C0.66 0 1.32 0 2 0 C2 4.29 2 8.58 2 13 C-2.2824569 14.07061422 -3.27586382 14.05807526 -7 12 C-8.3125 9.875 -8.3125 9.875 -9 8 C-8.34 7.34 -7.68 6.68 -7 6 C-6.773125 6.639375 -6.54625 7.27875 -6.3125 7.9375 C-5.879375 8.618125 -5.44625 9.29875 -5 10 C-3.35 10.33 -1.7 10.66 0 11 C0 7.37 0 3.74 0 0 Z " fill="#074F55" transform="translate(152,77)"/>
<path d="M0 0 C0 3 0 3 -1.875 5.1875 C-6.25538417 7.72812282 -10.05186334 7.34588916 -15 7 C-15 6.67 -15 6.34 -15 6 C-13.02 6 -11.04 6 -9 6 C-8.566875 4.7934375 -8.566875 4.7934375 -8.125 3.5625 C-6.30267669 -0.58834754 -4.18017007 -0.11000448 0 0 Z " fill="#E8963C" transform="translate(117,87)"/>
<path d="M0 0 C1.67542976 0.28604898 3.34385343 0.61781233 5 1 C5.33 2.32 5.66 3.64 6 5 C5.01 4.67 4.02 4.34 3 4 C3 5.32 3 6.64 3 8 C2.34 8 1.68 8 1 8 C0.67 8.66 0.34 9.32 0 10 C0 9.01 0 8.02 0 7 C-0.99 6.67 -1.98 6.34 -3 6 C-1.125 1.125 -1.125 1.125 0 0 Z " fill="#1C98A2" transform="translate(146,46)"/>
<path d="M0 0 C0.99 0 1.98 0 3 0 C3 0.66 3 1.32 3 2 C5.97 1.34 8.94 0.68 12 0 C11 4 11 4 9 6 C3.79155673 6.55408971 3.79155673 6.55408971 1.125 4.6875 C0 3 0 3 0 0 Z " fill="#325E4E" transform="translate(79,91)"/>
<path d="M0 0 C0 2.97 0 5.94 0 9 C-2.375 9.125 -2.375 9.125 -5 9 C-5.66 8.34 -6.32 7.68 -7 7 C-7 6.01 -7 5.02 -7 4 C-2.65714286 0 -2.65714286 0 0 0 Z " fill="#C59945" transform="translate(152,79)"/>
<path d="M0 0 C0.33 0.99 0.66 1.98 1 3 C-5.28571429 8.57142857 -5.28571429 8.57142857 -9 9 C-9 8.34 -9 7.68 -9 7 C-10.98 7 -12.96 7 -15 7 C-15 6.67 -15 6.34 -15 6 C-14.01 5.938125 -13.02 5.87625 -12 5.8125 C-7.28172009 5.17567694 -3.8254486 2.69271836 0 0 Z " fill="#1F564F" transform="translate(120,88)"/>
<path d="M0 0 C0.13277344 0.68707031 0.26554687 1.37414062 0.40234375 2.08203125 C0.57894531 2.98308594 0.75554687 3.88414063 0.9375 4.8125 C1.19853516 6.15248047 1.19853516 6.15248047 1.46484375 7.51953125 C1.97741153 10.11397171 1.97741153 10.11397171 3 13 C2.01 13.33 1.02 13.66 0 14 C-2.67927341 9.98108988 -2.15601248 7.75838077 -2 3 C-3.32 3 -4.64 3 -6 3 C-6 2.34 -6 1.68 -6 1 C-1.125 0 -1.125 0 0 0 Z " fill="#0C5155" transform="translate(93,76)"/>
<path d="M0 0 C0.66 0.33 1.32 0.66 2 1 C1.34 4.96 0.68 8.92 0 13 C-0.99 13.33 -1.98 13.66 -3 14 C-2.88655624 11.8535247 -2.75893655 9.70779408 -2.625 7.5625 C-2.52058594 5.77005859 -2.52058594 5.77005859 -2.4140625 3.94140625 C-2.27742187 2.97074219 -2.14078125 2.00007813 -2 1 C-1.34 0.67 -0.68 0.34 0 0 Z " fill="#0A4D51" transform="translate(131,75)"/>
<path d="M0 0 C5.625 -0.25 5.625 -0.25 9 2 C9 2.99 9 3.98 9 5 C5.7 4.67 2.4 4.34 -1 4 C-0.67 2.68 -0.34 1.36 0 0 Z " fill="#3F624B" transform="translate(101,55)"/>
<path d="M0 0 C2.31 0 4.62 0 7 0 C7.33 1.32 7.66 2.64 8 4 C4.7 4.66 1.4 5.32 -2 6 C-1.34 4.02 -0.68 2.04 0 0 Z " fill="#155358" transform="translate(83,14)"/>
<path d="M0 0 C0.99 0.33 1.98 0.66 3 1 C3.33 1.99 3.66 2.98 4 4 C3.34 4 2.68 4 2 4 C1.814375 4.639375 1.62875 5.27875 1.4375 5.9375 C0 8 0 8 -3.625 8.75 C-4.73875 8.8325 -5.8525 8.915 -7 9 C-7 8.34 -7 7.68 -7 7 C-5.5459375 6.38125 -5.5459375 6.38125 -4.0625 5.75 C-0.87739901 4.35100832 -0.87739901 4.35100832 -0.125 1.8125 C-0.08375 1.214375 -0.0425 0.61625 0 0 Z " fill="#0D4F54" transform="translate(109,140)"/>
<path d="M0 0 C1.67542976 0.28604898 3.34385343 0.61781233 5 1 C4.67 2.65 4.34 4.3 4 6 C3.01 6 2.02 6 1 6 C0.34 5.34 -0.32 4.68 -1 4 C-1.99 4.66 -2.98 5.32 -4 6 C-4.66 5.34 -5.32 4.68 -6 4 C-5.195625 3.525625 -4.39125 3.05125 -3.5625 2.5625 C-1.15246512 1.23099846 -1.15246512 1.23099846 0 0 Z " fill="#DCA13D" transform="translate(130,108)"/>
<path d="M0 0 C2.81986541 1.03395065 3.85795028 1.76530916 5.4375 4.375 C6 7 6 7 4.625 9.3125 C3.820625 10.1478125 3.820625 10.1478125 3 11 C0 4.5 0 4.5 0 0 Z " fill="#2A5B4E" transform="translate(117,67)"/>
<path d="M0 0 C6.625 -0.25 6.625 -0.25 10 2 C10.33 2.66 10.66 3.32 11 4 C7.7 4 4.4 4 1 4 C0.67 2.68 0.34 1.36 0 0 Z " fill="#E8A43B" transform="translate(100,59)"/>
<path d="M0 0 C0.33 0 0.66 0 1 0 C0.67 3.63 0.34 7.26 0 11 C-0.99 11 -1.98 11 -3 11 C-3 8.36 -3 5.72 -3 3 C-2.34 3 -1.68 3 -1 3 C-0.67 2.01 -0.34 1.02 0 0 Z " fill="#0B4D54" transform="translate(62,133)"/>
<path d="M0 0 C0.33 0 0.66 0 1 0 C1.38614349 6.8218683 0.00865708 12.49577707 -2 19 C-3.51953125 17.63671875 -3.51953125 17.63671875 -5 16 C-4.6875 13.8125 -4.6875 13.8125 -4 12 C-3.01 12 -2.02 12 -1 12 C-0.67 8.04 -0.34 4.08 0 0 Z " fill="#3F6968" transform="translate(132,76)"/>
<path d="M0 0 C-0.99 0.495 -0.99 0.495 -2 1 C-2 1.66 -2 2.32 -2 3 C-0.68 3 0.64 3 2 3 C2 4.65 2 6.3 2 8 C1.34 7.01 0.68 6.02 0 5 C-3.06556598 4.26656572 -3.06556598 4.26656572 -6 4 C-6 3.34 -6 2.68 -6 2 C-6.99 1.67 -7.98 1.34 -9 1 C-6.04335481 -0.4783226 -3.25770263 -0.06032783 0 0 Z " fill="#355E4B" transform="translate(89,76)"/>
<path d="M0 0 C3.3 0.33 6.6 0.66 10 1 C8.515 2.485 8.515 2.485 7 4 C7.66 4.66 8.32 5.32 9 6 C6.36 5.67 3.72 5.34 1 5 C0.67 3.35 0.34 1.7 0 0 Z " fill="#476D65" transform="translate(47,122)"/>
<path d="M0 0 C0.66 0.33 1.32 0.66 2 1 C2 1.99 2 2.98 2 4 C1.34 4 0.68 4 0 4 C0.33 5.98 0.66 7.96 1 10 C0.01 10 -0.98 10 -2 10 C-2.33 10.66 -2.66 11.32 -3 12 C-4.21386936 8.35839192 -3.6674695 7.66834531 -2.0625 4.3125 C-1.49208984 3.10013672 -1.49208984 3.10013672 -0.91015625 1.86328125 C-0.60980469 1.24839844 -0.30945313 0.63351563 0 0 Z " fill="#08555E" transform="translate(140,112)"/>
<path d="M0 0 C1.4540625 0.0309375 1.4540625 0.0309375 2.9375 0.0625 C3.2675 1.3825 3.5975 2.7025 3.9375 4.0625 C3.009375 4.041875 2.08125 4.02125 1.125 4 C-2.08536011 3.90480396 -2.08536011 3.90480396 -5.0625 5.0625 C-3.9375 0.08035714 -3.9375 0.08035714 0 0 Z " fill="#2B5A4D" transform="translate(67.0625,54.9375)"/>
<path d="M0 0 C-0.3125 1.875 -0.3125 1.875 -1 4 C-4 6 -4 6 -6.6875 5.625 C-7.450625 5.41875 -8.21375 5.2125 -9 5 C-4.5 0 -4.5 0 0 0 Z " fill="#11484C" transform="translate(73,33)"/>
<path d="M0 0 C0.33 0.99 0.66 1.98 1 3 C1.66 3 2.32 3 3 3 C2.50168276 6.68754757 1.89932357 8.60490662 -1 11 C-1 10.01 -1 9.02 -1 8 C-1.66 8 -2.32 8 -3 8 C-1.125 1.125 -1.125 1.125 0 0 Z " fill="#2E615F" transform="translate(81,16)"/>
<path d="M0 0 C0.66 0 1.32 0 2 0 C1.67 2.31 1.34 4.62 1 7 C1.66 7 2.32 7 3 7 C3 5.02 3 3.04 3 1 C3.66 1 4.32 1 5 1 C4.34 4.3 3.68 7.6 3 11 C2.34 10.34 1.68 9.68 1 9 C0.34 9.66 -0.32 10.32 -1 11 C-0.67 7.37 -0.34 3.74 0 0 Z " fill="#34625D" transform="translate(61,125)"/>
<path d="M0 0 C0.33 0 0.66 0 1 0 C1 3.63 1 7.26 1 11 C-0.65 11 -2.3 11 -4 11 C-5 10 -5 10 -5.0625 6.4375 C-5.041875 5.303125 -5.02125 4.16875 -5 3 C-4.67 3 -4.34 3 -4 3 C-3.67 4.65 -3.34 6.3 -3 8 C-2.34 8 -1.68 8 -1 8 C-0.67 5.36 -0.34 2.72 0 0 Z " fill="#37939D" transform="translate(115,167)"/>
<path d="M0 0 C3.59936904 4.39065124 4 8.38583479 4 14 C3.01 14 2.02 14 1 14 C-0.38226016 11.23547967 -0.09525387 8.9538637 -0.0625 5.875 C-0.05347656 4.77929688 -0.04445312 3.68359375 -0.03515625 2.5546875 C-0.02355469 1.71164063 -0.01195312 0.86859375 0 0 Z " fill="#2A5A4E" transform="translate(47,74)"/>
<path d="M0 0 C0.66 0 1.32 0 2 0 C2.33 2.97 2.66 5.94 3 9 C1.68 8.01 0.36 7.02 -1 6 C-1.33 7.32 -1.66 8.64 -2 10 C-2 7.69 -2 5.38 -2 3 C-1.34 3 -0.68 3 0 3 C0 2.01 0 1.02 0 0 Z " fill="#43685E" transform="translate(110,134)"/>
<path d="M0 0 C0.99 0 1.98 0 3 0 C2.67 1.98 2.34 3.96 2 6 C1.34 6 0.68 6 0 6 C0 7.98 0 9.96 0 12 C-0.66 12 -1.32 12 -2 12 C-2 9.36 -2 6.72 -2 4 C-1.34 4 -0.68 4 0 4 C0 2.68 0 1.36 0 0 Z " fill="#0F5153" transform="translate(64,120)"/>
<path d="M0 0 C4.82360189 -0.19294408 8.49646738 0.24252386 13 2 C13 2.33 13 2.66 13 3 C4.80743982 3.4726477 4.80743982 3.4726477 1.4375 1.5 C0.963125 1.005 0.48875 0.51 0 0 Z " fill="#064E57" transform="translate(43,111)"/>
<path d="M0 0 C0.33 0.66 0.66 1.32 1 2 C2.32 1.67 3.64 1.34 5 1 C5.66 2.65 6.32 4.3 7 6 C6.34 5.67 5.68 5.34 5 5 C5.33 6.65 5.66 8.3 6 10 C2.46413986 6.82679218 0.41421969 4.83256305 0 0 Z " fill="#305F5E" transform="translate(41,92)"/>
<path d="M0 0 C0.66 0.33 1.32 0.66 2 1 C0.875 3.9375 0.875 3.9375 -1 7 C-4.1875 7.875 -4.1875 7.875 -7 8 C-5.50902342 4.2047869 -3.24299151 2.38957269 0 0 Z " fill="#295C5D" transform="translate(148,76)"/>
<path d="M0 0 C1 3 1 3 -0.4375 6.1875 C-1.2109375 7.5796875 -1.2109375 7.5796875 -2 9 C-4 7 -4 7 -4.125 4.375 C-4.08375 3.59125 -4.0425 2.8075 -4 2 C-2.68 1.34 -1.36 0.68 0 0 Z " fill="#125254" transform="translate(48,57)"/>
<path d="M0 0 C0.99 0.99 1.98 1.98 3 3 C2.34 4.65 1.68 6.3 1 8 C-2 8 -2 8 -4 7 C-2.68 4.69 -1.36 2.38 0 0 Z " fill="#255752" transform="translate(77,136)"/>
<path d="M0 0 C2.3828125 -0.29296875 2.3828125 -0.29296875 5.125 -0.1875 C6.03507812 -0.16042969 6.94515625 -0.13335937 7.8828125 -0.10546875 C8.58148438 -0.07066406 9.28015625 -0.03585938 10 0 C10 0.66 10 1.32 10 2 C4.06 2.495 4.06 2.495 -2 3 C-1.34 2.01 -0.68 1.02 0 0 Z " fill="#0D5254" transform="translate(101,64)"/>
<path d="M0 0 C0.66 0.33 1.32 0.66 2 1 C1.34 2.98 0.68 4.96 0 7 C-1.65 7.33 -3.3 7.66 -5 8 C-3.375 2.25 -3.375 2.25 0 0 Z " fill="#145F67" transform="translate(143,82)"/>
<path d="M0 0 C0.556875 0.226875 1.11375 0.45375 1.6875 0.6875 C0.6975 1.0175 -0.2925 1.3475 -1.3125 1.6875 C-1.6425 2.6775 -1.9725 3.6675 -2.3125 4.6875 C-4.375 5.875 -4.375 5.875 -6.3125 6.6875 C-6.6425 5.3675 -6.9725 4.0475 -7.3125 2.6875 C-2.88173077 -0.38942308 -2.88173077 -0.38942308 0 0 Z " fill="#26594E" transform="translate(60.3125,63.3125)"/>
<path d="M0 0 C2.475 0.495 2.475 0.495 5 1 C5 3.64 5 6.28 5 9 C4.34 8.67 3.68 8.34 3 8 C3 6.02 3 4.04 3 2 C2.34 2 1.68 2 1 2 C0.67 2.66 0.34 3.32 0 4 C0 2.68 0 1.36 0 0 Z " fill="#228A93" transform="translate(132,23)"/>
<path d="M0 0 C0.33 0 0.66 0 1 0 C2.12880057 3.31114834 3.21302675 6.58978257 4 10 C1.5625 9.1875 1.5625 9.1875 -1 8 C-1.33 7.01 -1.66 6.02 -2 5 C-1.34 5 -0.68 5 0 5 C0 3.35 0 1.7 0 0 Z " fill="#2A5F5C" transform="translate(62,139)"/>
<path d="M0 0 C0.99 0.33 1.98 0.66 3 1 C2.01 3.31 1.02 5.62 0 8 C-1.5625 6.75 -1.5625 6.75 -3 5 C-2.8125 2.875 -2.8125 2.875 -2 1 C-1.34 0.67 -0.68 0.34 0 0 Z " fill="#1B575E" transform="translate(152,90)"/>
<path d="M0 0 C0.33 0 0.66 0 1 0 C1 2.97 1 5.94 1 9 C0.01 8.67 -0.98 8.34 -2 8 C-2.125 5.125 -2.125 5.125 -2 2 C-1.34 1.34 -0.68 0.68 0 0 Z " fill="#054D55" transform="translate(41,75)"/>
<path d="M0 0 C0.99 0.495 0.99 0.495 2 1 C2 1.99 2 2.98 2 4 C2.99 4 3.98 4 5 4 C5 4.66 5 5.32 5 6 C3.02 6.99 3.02 6.99 1 8 C0 7 0 7 -0.0625 3.4375 C-0.041875 2.303125 -0.02125 1.16875 0 0 Z " fill="#054F56" transform="translate(78,74)"/>
<path d="M0 0 C0.33 0 0.66 0 1 0 C1 3.96 1 7.92 1 12 C0.67 12 0.34 12 0 12 C-0.33 9.69 -0.66 7.38 -1 5 C-1.99 5 -2.98 5 -4 5 C-2.69254251 3.31295807 -1.35827971 1.64639965 0 0 Z " fill="#3B624D" transform="translate(93,72)"/>
<path d="M0 0 C0.99 0 1.98 0 3 0 C1.95125002 2.62187494 1.35068687 3.79371361 -1.125 5.25 C-1.74375 5.4975 -2.3625 5.745 -3 6 C-2.42655063 3.13275314 -2.1385485 2.1385485 0 0 Z " fill="#20585E" transform="translate(122,101)"/>
<path d="M0 0 C2.09350689 3.4019487 2.17942163 6.05272412 2 10 C1.01 10 0.02 10 -1 10 C-1.125 3.375 -1.125 3.375 0 0 Z " fill="#E6A43B" transform="translate(45,66)"/>
<path d="M0 0 C1.32 0 2.64 0 4 0 C3.625 2.9375 3.625 2.9375 3 6 C2.01 6.495 2.01 6.495 1 7 C0.67 4.69 0.34 2.38 0 0 Z " fill="#114F51" transform="translate(125,60)"/>
<path d="M0 0 C1.32 0.99 2.64 1.98 4 3 C3.67 3.66 3.34 4.32 3 5 C1.35 5 -0.3 5 -2 5 C-1.125 1.125 -1.125 1.125 0 0 Z " fill="#0B97A2" transform="translate(141,59)"/>
<path d="M0 0 C0.66 0 1.32 0 2 0 C2 0.66 2 1.32 2 2 C3.32 2 4.64 2 6 2 C6 1.34 6 0.68 6 0 C6.66 0.33 7.32 0.66 8 1 C7.01 2.485 7.01 2.485 6 4 C3.375 4.1875 3.375 4.1875 1 4 C0.67 2.68 0.34 1.36 0 0 Z " fill="#36949C" transform="translate(118,174)"/>
<path d="M0 0 C1.32 0 2.64 0 4 0 C3.75 1.875 3.75 1.875 3 4 C0.9375 5.25 0.9375 5.25 -1 6 C-0.67 4.02 -0.34 2.04 0 0 Z " fill="#1D5A61" transform="translate(135,94)"/>
<path d="M0 0 C1.65 0.33 3.3 0.66 5 1 C5 1.99 5 2.98 5 4 C2.03 3.505 2.03 3.505 -1 3 C-0.67 2.01 -0.34 1.02 0 0 Z " fill="#0C96A3" transform="translate(138,35)"/>
<path d="M0 0 C1.09898702 3.29696105 0.87124444 4.40494903 0.0625 7.6875 C-0.13214844 8.49574219 -0.32679687 9.30398437 -0.52734375 10.13671875 C-0.76130859 11.05904297 -0.76130859 11.05904297 -1 12 C-1.33 12 -1.66 12 -2 12 C-2.05395478 10.37536158 -2.09277195 8.75021459 -2.125 7.125 C-2.14820313 6.22007813 -2.17140625 5.31515625 -2.1953125 4.3828125 C-2 2 -2 2 0 0 Z " fill="#044F57" transform="translate(50,72)"/>
<path d="M0 0 C2.0625 0.4375 2.0625 0.4375 4 1 C3.34 1.66 2.68 2.32 2 3 C1.34 2.67 0.68 2.34 0 2 C-0.33 3.32 -0.66 4.64 -1 6 C-1.66 6 -2.32 6 -3 6 C-1.125 1.125 -1.125 1.125 0 0 Z " fill="#339BA3" transform="translate(146,46)"/>
<path d="M0 0 C1.98 0.66 3.96 1.32 6 2 C5.34 3.32 4.68 4.64 4 6 C2.62437146 4.71034824 1.29233607 3.37310707 0 2 C0 1.34 0 0.68 0 0 Z " fill="#155352" transform="translate(95,21)"/>
<path d="M0 0 C0.33 0 0.66 0 1 0 C1 1.98 1 3.96 1 6 C-0.32 5.67 -1.64 5.34 -3 5 C-1.125 1.125 -1.125 1.125 0 0 Z " fill="#FCAA36" transform="translate(150,81)"/>
</svg>
